<?xml version="1.0" encoding="utf-8"?>
<!-- Generator: Adobe Illustrator 26.0.0, SVG Export Plug-In . SVG Version: 6.00 Build 0)  -->
<svg version="1.1" xmlns="http://www.w3.org/2000/svg" xmlns:xlink="http://www.w3.org/1999/xlink" x="0px" y="0px"
	 viewBox="0 0 1893 831" style="enable-background:new 0 0 1893 831;" xml:space="preserve">
<style type="text/css">
	.st0{display:none;fill:url(#SVGID_1_);stroke:#000000;stroke-miterlimit:10;}
	.st1{fill:url(#SVGID_00000147926902786921106010000009752037549598710404_);}
	.st2{fill:#075BFE;}
	.st3{fill:#010726;}
	.st4{fill:url(#SVGID_00000146475904589927150280000000613422243256525200_);}
	.st5{fill:#01000E;}
	.st6{fill:#01CAEA;}
	.st7{fill:#0294FB;}
	.st8{fill:#00DAD7;}
</style>
<g id="Camada_2">
</g>
<g id="Camada_1">
	<g>
		<linearGradient id="SVGID_1_" gradientUnits="userSpaceOnUse" x1="0" y1="415.5" x2="1893" y2="415.5">
			<stop  offset="0" style="stop-color:#FFFFFF"/>
			<stop  offset="1" style="stop-color:#FFFFFF"/>
		</linearGradient>
		<rect class="st0" width="1893" height="831"/>
		
			<linearGradient id="SVGID_00000081623023514434535280000013569476345810920617_" gradientUnits="userSpaceOnUse" x1="532.5275" y1="508.1875" x2="163.6375" y2="343.2686" gradientTransform="matrix(1 0 0 -1 0 831.89)">
			<stop  offset="0" style="stop-color:#00ECE9"/>
			<stop  offset="1" style="stop-color:#0657FF"/>
		</linearGradient>
		<path style="fill:url(#SVGID_00000081623023514434535280000013569476345810920617_);" d="M219.6,494.5
			c-33.9-25.9-58.1-64.3-63.4-106.7c-10.5-83.3,55.7-163.4,137.9-174.3c13.9-1.8,28.4-1.3,42.3-1.3l58.1,0.1
			c25.1,0,50.3-0.6,75.4,0.1c13.8,0.4,21.7,9.9,23.6,23.2c2.1,14.4-10.4,25.1-24.1,25.8c-14.7,0.7-30.2,0.3-45.2,0.2l-80.8-0.1
			c-16.5,0-35.8-1.1-51.5,2.8c-24.1,5.9-45.7,19.4-61.6,38.6c-17.9,21.7-27.8,48.7-25,77c2.8,28.1,17.9,53.1,39.6,70.8
			c8.1,6.6,25.8,15.4,27,26.9c1.4,13.8-16.4,70.3-20.5,88c22-9.4,48.7-23.3,71.2-30.3c3.6-1.1,23.8-0.8,28.7-0.8l45.6,0.1
			c11.3,0,25.9,0.5,36.8-1.1c28.6-4.3,52.7-23.5,63.3-50.4c17.3-43.1-6-96.8-54.3-102.7l-48.5,48.7c-9.8,9.9-19.6,20.6-30.6,29.1
			c-5.2,4-18.4,4-23.6-0.2c-10.4-9.6-23.9-21.6-33-32.2c-8.6-10.1-27.1-24.2-33.3-34.7c-9.3-15.7,3.8-33.7,22.1-33.2
			c3.6,0.1,7.1,1.2,10.1,3c5.9,3.7,38.7,37.4,46.2,44.6c15.2-15.2,30.3-30.4,45.3-45.8c10.5-10.7,27.3-32.4,42.7-31.5
			c28,1.6,54.1,15.5,73.8,35.2c24.3,24.1,37.9,56.9,37.8,91.1c-0.1,34.4-13.8,67.4-38.2,91.7c-56.2,55.4-115.6,34.3-184.4,39.6
			c-7.7,0.6-64.7,29.2-77.3,34c-14.4,6.8-36.9,20.4-52.5,12c-19-10.1-3.4-48,0.8-64.5l12.8-48C214.7,512.6,217.6,500.2,219.6,494.5z
			"/>
		<path class="st2" d="M200.2,567.1c0.1,3.5,4.4,10.8,6.7,12.3c17.2,11.2,29,18.4,37.8,38c-0.3-0.6,6.4,1.7,7.3,2.2
			c-14.4,6.8-36.9,20.4-52.5,12C180.4,621.5,196.1,583.6,200.2,567.1z"/>
		<path class="st3" d="M686.9,293.4c0.1,0,0.2,0,0.4-0.1c34.3-0.6,68.9-0.4,103.2,0.1c7.3,0.1,8.3,6.5,8.3,12c0,6,1.4,15.3-2.9,20.1
			c-2,1.1-4.6,2.1-6.8,2.1c-29.2,0.1-58.8-0.7-87.9-0.3c-18.7,0.1-33,9.3-31.6,29.7c1.6,23.5,35,22.7,51.9,24.4
			c24.9,2.3,55.5,1.4,75.4,18.8c22.2,19.4,22.9,63.8,2.8,85c-14.5,15.4-30.6,18.2-50.7,19.4l-71.7,0c-11.2,0-22.6,0.3-33.7,0.1
			c-13.9-0.3-10-12.9-10.3-22.1c0-1.8,0.1-8.6,1.9-9.5c7.6-4.2,26.4-2.5,35-2.5l54.6,0.2c13.3,0,41.5,1.6,47.2-10.4
			c17.9-37.4-12.4-43.9-38.9-45c-26.6-2-57.7-1-80-17.5c-24.5-18-26.1-60.7-8-83.2C656.1,300.9,669.8,295.4,686.9,293.4z"/>
		<path class="st3" d="M869.3,359.6c28.7-1.8,60.4,0.8,88.8,0c19.9-0.5,46.6,14.5,48.8,34.4c1.5,14.3,3.9,101.2-1.2,108.9
			c-5.5,2.3-20.6,2.4-26.8,1.2c-1-0.2-3.4-4.1-6-3.9c-5.6,0.5-17.4,4.1-22.4,4.2c-18.8,0.3-43.6,1.4-62-0.9
			c-38.5-9.4-45.1-52.7-20.7-76.1c16.9-16.2,84.5-11,106.9-8.1c0.1-4.7,0.5-9.7,0-14.3c-0.7-5.6-3-9.9-8-12.8
			c-19.2-11.1-90.7,1-98.9-6.1c-1.2-1-1.5-3-1.6-4.5C865.9,374.5,864.4,365.1,869.3,359.6z M951.3,475.7
			c22.2-2.1,25.7-1.4,23.3-26.8c-0.1-1.4-0.7-2.5-1.7-3.5c-7.8-3.5-47.7-2.2-59.3-2.2c-13.2,1.1-26.9,3.3-26,19.5
			C888.7,480.9,940.7,475.8,951.3,475.7z"/>
		<path class="st3" d="M1304.4,359.7c20.4-1,41-0.3,61.3-0.3c8.2,0,17.1-1.1,25.1-0.5c1.9,0.1,3.8,0.7,5.3,1.8
			c2.9,2.1,4.1,5.7,4.6,9.1c0.6,4.3,0.6,12.4-2.4,15.9c-3,3.6-67,1.6-76.3,2.1c-6.3,0.3-14.8,1.2-19.1,6.3c-2,2.3-2.2,5.9-1.9,8.8
			c2.6,24.7,70.2,4.2,95.5,25.2c8.3,6.9,12.6,17.3,13.4,27.9c0.9,12-1.9,24-9.8,33.2c-8.9,10.3-20.4,13.9-33.6,15
			c-11.7,1.8-43.6-0.5-57.3,0.3c-9.6-0.1-21.1,0.1-30.4,0.3c-16.2,0.5-10.8-28.6-5.4-29c30-2.4,61.3,1.4,91.3-1.2
			c3.1-0.3,7.9-2.7,9.5-5.7c13.4-34.8-43.5-21.9-60.9-25.1c-13.3-2.5-17.7-1.4-28.4-7.9c-7.4-4.6-14.1-12.1-15.6-21.1
			C1264.1,384.2,1275.6,366.3,1304.4,359.7z"/>
		
			<linearGradient id="SVGID_00000099644155132293859390000001168051462391031209_" gradientUnits="userSpaceOnUse" x1="1731.7587" y1="372.9503" x2="1568.4558" y2="379.9626" gradientTransform="matrix(1 0 0 -1 0 831.89)">
			<stop  offset="0" style="stop-color:#00EDD0"/>
			<stop  offset="1" style="stop-color:#01CEE4"/>
		</linearGradient>
		<path style="fill:url(#SVGID_00000099644155132293859390000001168051462391031209_);" d="M1572.3,360.5c5.7-0.1,31-1.9,33.6,2.8
			c18,32.9,32.3,68.7,50.3,101.6c17.1-31.7,30.8-70.6,49-102.1c2.1-3.7,28.1-3.8,32.6,0.3c1.2,4.8-33.9,76-39.1,86.8l-24.5,52.4
			c-17.8,37.9-23.4,54.7-70.8,48.9c-8.3-1-6.5-18-5.8-24c0.8-7.2,20.4-1.2,24.8-4.9c10.5-5.3,11.9-11,16.4-21.1
			c-6.4-10.8-13.8-26.2-19.5-37.7l-30.2-60.8c-5.7-11.5-12.5-24.7-18.2-36.4C1569.8,364.5,1571.3,362.5,1572.3,360.5z"/>
		<path class="st3" d="M1461.5,359c-0.3-27.3-2.7-56.9,31.9-64.6c9.8-2.2,46.3-3.2,54.1,1.7c3.6,4.9,2.3,17.4,1.8,23.7
			c-2.5,4.2-3.3,4.8-8.4,4.3c-36.1-2.5-47.1-4.9-46.2,35c13.8,1,29.4-1.5,42.6,1.6c3.7,0.9,3,21.8,0.9,25.3
			c-4.8,2.7-35.1,1.5-43.8,1.8l0,70.4c0.1,12.6,0.3,25.2-0.1,37.8c-0.2,5.5-3,8.2-8.4,8.5c-6.2,0.3-18.1,1.3-23.1-2.7
			c-2.8-6.5-1.2-101.3-1.1-113.7c-9.3-1.1-33.8,6.8-22.1-26.6C1440.9,358.3,1456.1,359.5,1461.5,359z"/>
		<path class="st5" d="M1541,324.2l1.1-1.4l2.6-0.2c-0.1-2.2-1.8-3.4-3.4-5.7l1-1.4c3.1-1.1,2.7-1.5,5.5-0.9
			c0.1-1.3,0.1-0.8,0.9-1.9l0.8,7.2C1546.9,324.1,1546.1,324.7,1541,324.2z"/>
		<path class="st3" d="M1068.8,315.3c42.4-4.3,32.2,7.1,31.7,43.8c14,0.7,30.2-1.7,43.6,1.6c4.2,1,3.5,21.8,1.4,25.3
			c-4.7,2.5-36.1,1.5-44.7,1.9l-0.1,46.4c0,7.7-0.5,18.8,0.5,26.3c3.5,25.2,32.5,8.1,44.4,16.7c2.3,2.5,1.9,5.8,2,9.2
			c0,4.5,0.6,10.7-1.4,14.5c-9.5,9.3-74.5,6.2-77.7-22c-3.4-30.4-2.1-60.6-2-91.2c-6.6-0.5-17.9,1.6-22.6-1.6
			c-5-3.4-4.7-21.4-0.6-25.4c3.8-3.8,18-2.1,23.3-2.1C1066.6,349.7,1064.6,321.1,1068.8,315.3z"/>
		<path class="st3" d="M1199.5,358.9c6.6,0.3,17.6-1,22.8,2.4c2.4,4.1,2.7,131.3,0.4,140.5c-1.8,2.1-2.3,1.7-5.4,2.7
			c-6.4,0.1-16.4,1.3-22.4-1.1c-1.5-0.6-2.4-1.3-2.9-2.8c-1.8-4.9-1.6-116.1-1.1-129.6c0.1-3.2,0.2-6.6,1.5-9.5
			C1194.7,359.4,1196.4,359.4,1199.5,358.9z"/>
		<path class="st6" d="M1198.1,295.2c4.4,0.1,18.9-0.8,21.6,1.5c7.9,6.5,9.8,33-3.5,35.7c-4.9,0.1-20.5,0.6-23.1-1.7
			C1185.3,323.3,1185.2,298.7,1198.1,295.2z"/>
		<path class="st7" d="M633,592.7c26.2-1,53.5,0.4,79.9-0.3c11-0.3,24.3-0.4,35.1,0.3c2,1.8,1.4,1.9,2,5.3
			c-11,0.3-113.9,0.8-116.6-1L633,592.7z"/>
		<path class="st8" d="M1612.1,592.7c18.3-0.8,41.5,0,60.2-0.2c16.1-0.1,39.9-0.7,55.1,0.4c1.4,1.6,1.2,2.8,1.5,5.2
			c-32.6,0.4-81.5,0.1-115.1-0.2c-0.5-0.4-1-0.8-1.4-1.1L1612.1,592.7z"/>
		<g>
			<path d="M827.6,604.6v-23.3h8.4c1.8,0,3.3,0.3,4.5,1c1.2,0.6,2.1,1.5,2.7,2.7c0.6,1.1,0.9,2.4,0.9,3.9c0,1.4-0.3,2.7-0.9,3.9
				c-0.6,1.1-1.5,2-2.7,2.7c-1.2,0.7-2.7,1-4.5,1h-5.9v-3h5.6c1.1,0,2-0.2,2.7-0.6c0.7-0.4,1.2-0.9,1.6-1.6c0.3-0.7,0.5-1.5,0.5-2.3
				s-0.2-1.6-0.5-2.3c-0.3-0.7-0.9-1.2-1.6-1.6s-1.6-0.6-2.8-0.6h-4.5v20.2H827.6z"/>
			<path d="M862.4,604.6v-23.3h14.9v3.1H866v6.9h10.5v3H866v7.2h11.4v3.1H862.4z"/>
			<path d="M903.9,604.9c-1.8,0-3.3-0.3-4.6-0.9s-2.3-1.4-3-2.4c-0.7-1.1-1.1-2.3-1.2-3.8h3.5c0.1,0.9,0.3,1.6,0.8,2.2
				s1.1,1,1.9,1.3c0.8,0.3,1.6,0.5,2.6,0.5c1,0,1.9-0.2,2.7-0.5c0.8-0.3,1.4-0.8,1.8-1.3c0.4-0.6,0.7-1.2,0.7-2
				c0-0.7-0.2-1.2-0.6-1.6c-0.4-0.4-0.9-0.8-1.5-1.1c-0.7-0.3-1.4-0.6-2.3-0.8l-2.7-0.7c-2-0.5-3.5-1.3-4.6-2.3
				c-1.1-1-1.6-2.3-1.6-3.9c0-1.3,0.4-2.5,1.1-3.5c0.7-1,1.7-1.8,2.9-2.4c1.2-0.6,2.7-0.8,4.2-0.8c1.6,0,3,0.3,4.2,0.9
				c1.2,0.6,2.2,1.3,2.9,2.3c0.7,1,1.1,2.1,1.1,3.4h-3.5c-0.1-1.1-0.6-2-1.5-2.6s-2-0.9-3.3-0.9c-0.9,0-1.8,0.1-2.5,0.4
				c-0.7,0.3-1.2,0.7-1.6,1.2c-0.4,0.5-0.6,1.1-0.6,1.8c0,0.7,0.2,1.3,0.6,1.7c0.4,0.4,1,0.8,1.6,1.1c0.7,0.3,1.3,0.5,2,0.7l2.3,0.6
				c0.8,0.2,1.7,0.5,2.5,0.8c0.8,0.3,1.5,0.8,2.2,1.3c0.6,0.5,1.2,1.1,1.5,1.9c0.4,0.7,0.6,1.6,0.6,2.6c0,1.3-0.3,2.5-1,3.5
				c-0.7,1-1.7,1.8-3,2.4C907.3,604.7,905.7,604.9,903.9,604.9z"/>
			<path d="M940.7,604.9c-2,0-3.8-0.5-5.4-1.5c-1.6-1-2.8-2.3-3.8-4.1c-0.9-1.8-1.4-3.9-1.4-6.4c0-2.5,0.5-4.6,1.4-6.4
				c0.9-1.8,2.2-3.2,3.8-4.1c1.6-1,3.4-1.5,5.4-1.5c2,0,3.8,0.5,5.4,1.5c1.6,1,2.8,2.3,3.8,4.1c0.9,1.8,1.4,3.9,1.4,6.4
				c0,2.5-0.5,4.6-1.4,6.4c-0.9,1.8-2.2,3.2-3.8,4.1C944.5,604.4,942.7,604.9,940.7,604.9z M940.7,601.7c1.3,0,2.5-0.3,3.6-1
				c1.1-0.7,1.9-1.7,2.5-3c0.6-1.3,0.9-2.9,0.9-4.8c0-1.9-0.3-3.5-0.9-4.8c-0.6-1.3-1.5-2.3-2.5-3c-1.1-0.7-2.2-1-3.6-1
				c-1.3,0-2.5,0.3-3.6,1s-1.9,1.7-2.5,3c-0.6,1.3-0.9,2.9-0.9,4.8c0,1.9,0.3,3.5,0.9,4.8c0.6,1.3,1.5,2.3,2.5,3
				S939.4,601.7,940.7,601.7z M939.5,597.1h3.4l2.5,3.2l1.1,1.4l3.9,5.1h-3.5l-2.6-3.4l-0.9-1.2L939.5,597.1z"/>
			<path d="M979.1,604.9c-1.9,0-3.5-0.4-4.9-1.1s-2.5-1.7-3.2-3c-0.8-1.3-1.1-2.7-1.1-4.3v-15.3h3.5v15c0,1.1,0.2,2,0.7,2.8
				s1.1,1.5,2,1.9s1.9,0.7,3,0.7s2.2-0.2,3-0.7s1.5-1.1,2-1.9s0.7-1.7,0.7-2.8v-15h3.5v15.3c0,1.6-0.4,3.1-1.1,4.3
				c-0.8,1.3-1.8,2.2-3.2,3S980.9,604.9,979.1,604.9z"/>
			<path d="M1011.2,581.3v23.3h-3.6v-23.3H1011.2z"/>
			<path d="M1038.4,604.9c-1.8,0-3.3-0.3-4.6-0.9s-2.3-1.4-3-2.4s-1.1-2.3-1.2-3.8h3.5c0.1,0.9,0.3,1.6,0.8,2.2s1.1,1,1.9,1.3
				c0.8,0.3,1.6,0.5,2.6,0.5c1,0,1.9-0.2,2.7-0.5s1.4-0.8,1.8-1.3s0.7-1.2,0.7-2c0-0.7-0.2-1.2-0.6-1.6c-0.4-0.4-0.9-0.8-1.5-1.1
				s-1.4-0.6-2.3-0.8l-2.7-0.7c-2-0.5-3.5-1.3-4.6-2.3s-1.6-2.3-1.6-3.9c0-1.3,0.4-2.5,1.1-3.5c0.7-1,1.7-1.8,2.9-2.4
				c1.2-0.6,2.7-0.8,4.2-0.8c1.6,0,3,0.3,4.2,0.9c1.2,0.6,2.2,1.3,2.9,2.3c0.7,1,1.1,2.1,1.1,3.4h-3.5c-0.1-1.1-0.6-2-1.5-2.6
				s-2-0.9-3.3-0.9c-0.9,0-1.8,0.1-2.5,0.4s-1.2,0.7-1.6,1.2c-0.4,0.5-0.6,1.1-0.6,1.8c0,0.7,0.2,1.3,0.6,1.7c0.4,0.4,1,0.8,1.6,1.1
				c0.7,0.3,1.3,0.5,2,0.7l2.3,0.6c0.8,0.2,1.7,0.5,2.5,0.8c0.8,0.3,1.5,0.8,2.2,1.3c0.6,0.5,1.2,1.1,1.5,1.9
				c0.4,0.7,0.6,1.6,0.6,2.6c0,1.3-0.3,2.5-1,3.5s-1.7,1.8-3,2.4S1040.2,604.9,1038.4,604.9z"/>
			<path d="M1063.5,604.6l8.3-23.3h4.3l8.4,23.3h-3.8l-4.5-13c-0.4-1.1-0.7-2.3-1.2-3.7c-0.4-1.4-0.9-3.1-1.5-5.1h0.8
				c-0.6,2-1,3.7-1.5,5.1c-0.4,1.4-0.8,2.6-1.1,3.7l-4.4,13H1063.5z M1068.1,598.5v-3h12v3H1068.1z"/>
			<path d="M1124.9,604.6v-23.3h14.9v3.1h-11.3v6.9h10.5v3h-10.5v7.2h11.4v3.1H1124.9z"/>
			<path d="M1189.1,604.9c-1.8,0-3.3-0.3-4.6-0.9s-2.3-1.4-3-2.4c-0.7-1.1-1.1-2.3-1.2-3.8h3.5c0.1,0.9,0.3,1.6,0.8,2.2
				s1.1,1,1.9,1.3c0.8,0.3,1.6,0.5,2.6,0.5c1,0,1.9-0.2,2.7-0.5c0.8-0.3,1.4-0.8,1.8-1.3c0.4-0.6,0.7-1.2,0.7-2
				c0-0.7-0.2-1.2-0.6-1.6c-0.4-0.4-0.9-0.8-1.5-1.1c-0.7-0.3-1.4-0.6-2.3-0.8l-2.7-0.7c-2-0.5-3.5-1.3-4.6-2.3
				c-1.1-1-1.6-2.3-1.6-3.9c0-1.3,0.4-2.5,1.1-3.5c0.7-1,1.7-1.8,2.9-2.4c1.2-0.6,2.7-0.8,4.2-0.8c1.6,0,3,0.3,4.2,0.9
				c1.2,0.6,2.2,1.3,2.9,2.3c0.7,1,1.1,2.1,1.1,3.4h-3.5c-0.1-1.1-0.6-2-1.5-2.6s-2-0.9-3.3-0.9c-0.9,0-1.8,0.1-2.5,0.4
				c-0.7,0.3-1.2,0.7-1.6,1.2c-0.4,0.5-0.6,1.1-0.6,1.8c0,0.7,0.2,1.3,0.6,1.7c0.4,0.4,1,0.8,1.6,1.1c0.7,0.3,1.3,0.5,2,0.7l2.3,0.6
				c0.8,0.2,1.7,0.5,2.5,0.8c0.8,0.3,1.5,0.8,2.2,1.3c0.6,0.5,1.2,1.1,1.5,1.9c0.4,0.7,0.6,1.6,0.6,2.6c0,1.3-0.3,2.5-1,3.5
				c-0.7,1-1.7,1.8-3,2.4C1192.4,604.7,1190.9,604.9,1189.1,604.9z"/>
			<path d="M1214.2,604.6l8.3-23.3h4.3l8.4,23.3h-3.8l-4.5-13c-0.4-1.1-0.7-2.3-1.2-3.7c-0.4-1.4-0.9-3.1-1.5-5.1h0.8
				c-0.6,2-1,3.7-1.5,5.1c-0.4,1.4-0.8,2.6-1.1,3.7l-4.4,13H1214.2z M1218.7,598.5v-3h12v3H1218.7z"/>
			<path d="M1248.8,584.4v-3.1h18.1v3.1h-7.3v20.2h-3.5v-20.2H1248.8z"/>
			<path d="M1288.6,581.3v23.3h-3.6v-23.3H1288.6z"/>
			<path d="M1315.8,604.9c-1.8,0-3.3-0.3-4.6-0.9s-2.3-1.4-3-2.4c-0.7-1.1-1.1-2.3-1.2-3.8h3.5c0.1,0.9,0.3,1.6,0.8,2.2
				s1.1,1,1.9,1.3c0.8,0.3,1.6,0.5,2.6,0.5c1,0,1.9-0.2,2.7-0.5c0.8-0.3,1.4-0.8,1.8-1.3c0.4-0.6,0.7-1.2,0.7-2
				c0-0.7-0.2-1.2-0.6-1.6c-0.4-0.4-0.9-0.8-1.5-1.1c-0.7-0.3-1.4-0.6-2.3-0.8l-2.7-0.7c-2-0.5-3.5-1.3-4.6-2.3
				c-1.1-1-1.6-2.3-1.6-3.9c0-1.3,0.4-2.5,1.1-3.5c0.7-1,1.7-1.8,2.9-2.4c1.2-0.6,2.7-0.8,4.2-0.8c1.6,0,3,0.3,4.2,0.9
				c1.2,0.6,2.2,1.3,2.9,2.3c0.7,1,1.1,2.1,1.1,3.4h-3.5c-0.1-1.1-0.6-2-1.5-2.6s-2-0.9-3.3-0.9c-0.9,0-1.8,0.1-2.5,0.4
				c-0.7,0.3-1.2,0.7-1.6,1.2c-0.4,0.5-0.6,1.1-0.6,1.8c0,0.7,0.2,1.3,0.6,1.7c0.4,0.4,1,0.8,1.6,1.1c0.7,0.3,1.3,0.5,2,0.7l2.3,0.6
				c0.8,0.2,1.7,0.5,2.5,0.8c0.8,0.3,1.5,0.8,2.2,1.3c0.6,0.5,1.2,1.1,1.5,1.9c0.4,0.7,0.6,1.6,0.6,2.6c0,1.3-0.3,2.5-1,3.5
				c-0.7,1-1.7,1.8-3,2.4C1319.2,604.7,1317.6,604.9,1315.8,604.9z"/>
			<path d="M1342.9,604.6v-23.3h14.6v3.1h-11.1v7.4h10.1v3h-10.1v9.8H1342.9z"/>
			<path d="M1371.2,604.6l8.3-23.3h4.3l8.4,23.3h-3.8l-4.5-13c-0.4-1.1-0.7-2.3-1.2-3.7c-0.4-1.4-0.9-3.1-1.5-5.1h0.8
				c-0.6,2-1,3.7-1.5,5.1c-0.4,1.4-0.8,2.6-1.1,3.7l-4.4,13H1371.2z M1375.8,598.5v-3h12v3H1375.8z"/>
			<path d="M1418.5,604.9c-2,0-3.9-0.5-5.5-1.5s-2.8-2.3-3.8-4.1c-0.9-1.8-1.4-3.9-1.4-6.4c0-2.5,0.5-4.6,1.4-6.4
				c0.9-1.8,2.2-3.2,3.8-4.1s3.4-1.5,5.4-1.5c1.2,0,2.4,0.2,3.5,0.5c1.1,0.4,2.1,0.9,2.9,1.6c0.9,0.7,1.6,1.5,2.1,2.5
				c0.6,1,0.9,2.1,1.1,3.3h-3.6c-0.2-0.8-0.4-1.4-0.8-2c-0.4-0.6-0.8-1.1-1.4-1.5c-0.5-0.4-1.1-0.7-1.8-0.9
				c-0.7-0.2-1.4-0.3-2.1-0.3c-1.4,0-2.6,0.3-3.7,1c-1.1,0.7-1.9,1.7-2.5,3c-0.6,1.3-0.9,2.9-0.9,4.7c0,1.9,0.3,3.4,0.9,4.7
				c0.6,1.3,1.4,2.3,2.5,3c1.1,0.7,2.3,1,3.6,1c0.7,0,1.4-0.1,2.1-0.3c0.7-0.2,1.3-0.5,1.8-0.9c0.5-0.4,1-0.9,1.4-1.5
				c0.4-0.6,0.6-1.2,0.8-2h3.6c-0.2,1.2-0.5,2.2-1.1,3.2c-0.6,1-1.2,1.8-2.1,2.5c-0.8,0.7-1.8,1.3-2.9,1.6
				S1419.7,604.9,1418.5,604.9z M1416.5,611.2v-1.7h1.9c0.5,0,0.9-0.1,1.1-0.2c0.2-0.2,0.3-0.4,0.3-0.8c0-0.4-0.1-0.6-0.3-0.8
				c-0.2-0.2-0.6-0.2-1.1-0.2h-1.3l0.5-3.5h1.6v0.7l0,1.3c1,0,1.7,0.2,2.2,0.7s0.8,1,0.8,1.9c0,0.9-0.3,1.6-0.9,2
				c-0.6,0.4-1.5,0.6-2.7,0.6H1416.5z"/>
			<path d="M1444,604.6l8.3-23.3h4.3l8.4,23.3h-3.8l-4.5-13c-0.4-1.1-0.7-2.3-1.2-3.7c-0.4-1.4-0.9-3.1-1.5-5.1h0.8
				c-0.6,2-1,3.7-1.5,5.1c-0.4,1.4-0.8,2.6-1.1,3.7l-4.4,13H1444z M1448.6,598.5v-3h12v3H1448.6z M1456.6,578.4
				c-0.4,0-0.8-0.1-1.2-0.2s-0.7-0.3-1-0.5c-0.3-0.2-0.6-0.3-0.9-0.5c-0.3-0.1-0.5-0.2-0.7-0.2c-0.3,0-0.5,0.1-0.6,0.4
				s-0.2,0.6-0.2,0.9h-2.2c0-1.1,0.3-1.9,0.7-2.6c0.5-0.7,1.1-1,2-1c0.4,0,0.8,0.1,1.2,0.2c0.4,0.1,0.7,0.3,1,0.5
				c0.3,0.2,0.6,0.4,0.9,0.5c0.3,0.1,0.5,0.2,0.8,0.2c0.3,0,0.5-0.1,0.7-0.3c0.1-0.2,0.2-0.6,0.3-1h2.1c0,1.1-0.3,1.9-0.8,2.6
				C1458.1,578.1,1457.5,578.4,1456.6,578.4z"/>
			<path d="M1491.3,604.9c-2,0-3.8-0.5-5.4-1.5c-1.6-1-2.8-2.3-3.8-4.1c-0.9-1.8-1.4-3.9-1.4-6.4c0-2.5,0.5-4.6,1.4-6.4
				c0.9-1.8,2.2-3.2,3.8-4.1c1.6-1,3.4-1.5,5.4-1.5c2,0,3.8,0.5,5.4,1.5c1.6,1,2.8,2.3,3.8,4.1c0.9,1.8,1.4,3.9,1.4,6.4
				c0,2.5-0.5,4.6-1.4,6.4c-0.9,1.8-2.2,3.2-3.8,4.1C1495.1,604.4,1493.3,604.9,1491.3,604.9z M1491.3,601.7c1.3,0,2.5-0.3,3.6-1
				c1.1-0.7,1.9-1.7,2.5-3c0.6-1.3,0.9-2.9,0.9-4.8c0-1.9-0.3-3.5-0.9-4.8c-0.6-1.3-1.5-2.3-2.5-3c-1.1-0.7-2.2-1-3.6-1
				c-1.3,0-2.5,0.3-3.6,1s-1.9,1.7-2.5,3c-0.6,1.3-0.9,2.9-0.9,4.8c0,1.9,0.3,3.5,0.9,4.8c0.6,1.3,1.5,2.3,2.5,3
				S1489.9,601.7,1491.3,601.7z"/>
		</g>
	</g>
</g>
</svg>
