<?xml version="1.0" encoding="utf-8"?>
<!-- Generator: Adobe Illustrator 26.0.0, SVG Export Plug-In . SVG Version: 6.00 Build 0)  -->
<svg version="1.1" xmlns="http://www.w3.org/2000/svg" xmlns:xlink="http://www.w3.org/1999/xlink" x="0px" y="0px"
	 viewBox="0 0 1893 831" style="enable-background:new 0 0 1893 831;" xml:space="preserve">
<style type="text/css">
	.st0{display:none;fill:url(#SVGID_1_);stroke:#000000;stroke-miterlimit:10;}
	.st1{fill:url(#SVGID_00000175308210278024955000000004217445678719371185_);}
	.st2{fill:#FFFFFF;}
	.st3{fill:url(#SVGID_00000072968299355739622170000003165579959277270461_);}
	.st4{fill:#01CAEA;}
	.st5{fill:#0294FB;}
	.st6{fill:#00DAD7;}
</style>
<g id="Camada_2">
</g>
<g id="Camada_1">
	<linearGradient id="SVGID_1_" gradientUnits="userSpaceOnUse" x1="-185.4783" y1="358.9573" x2="1707.5217" y2="358.9573">
		<stop  offset="0" style="stop-color:#FFFFFF"/>
		<stop  offset="1" style="stop-color:#FFFFFF"/>
	</linearGradient>
	<rect x="-185.5" y="-56.5" class="st0" width="1893" height="831"/>
	
		<linearGradient id="SVGID_00000062174066808378902340000012553052742141061304_" gradientUnits="userSpaceOnUse" x1="515.0956" y1="349.2235" x2="118.1205" y2="526.6984">
		<stop  offset="0" style="stop-color:#00ECE9"/>
		<stop  offset="1" style="stop-color:#0657FF"/>
	</linearGradient>
	<path style="fill:url(#SVGID_00000062174066808378902340000012553052742141061304_);" d="M532.8,480.6
		c-0.1,34.4-13.8,67.4-38.2,91.7c-56.2,55.4-115.6,34.3-184.4,39.6c-7.7,0.6-64.7,29.2-77.3,34c-14.4,6.8-36.9,20.4-52.5,12
		c-19-10.1-3.4-48,0.8-64.5l12.8-48c1.7-6.5,4.6-18.9,6.6-24.7c-33.9-25.9-58.1-64.3-63.4-106.7c-10.5-83.3,55.7-163.4,137.9-174.3
		c13.9-1.8,28.4-1.3,42.2-1.3l58.1,0.1c25.1,0,50.3-0.6,75.4,0.1c13.8,0.4,21.7,9.9,23.6,23.2c2.1,14.4-10.4,25.1-24.1,25.8
		c-14.7,0.7-30.2,0.3-45.2,0.2l-80.8-0.1c-16.5,0-35.8-1-51.5,2.8c-24.1,5.9-45.7,19.4-61.6,38.6c-17.9,21.7-27.8,48.8-25,77
		c2.8,28.1,17.9,53.1,39.6,70.8c8.1,6.6,25.8,15.4,27,26.9c1.4,13.8-16.4,70.3-20.5,88c22-9.4,48.7-23.3,71.2-30.3
		c3.6-1.1,23.8-0.8,28.8-0.8l45.5,0.1c11.3,0,25.9,0.5,36.8-1.1c28.6-4.3,52.7-23.5,63.3-50.4c17.3-43.1-6-96.8-54.3-102.7
		l-48.5,48.7c-9.8,9.9-19.6,20.6-30.6,29.1c-5.2,4-18.4,4-23.5-0.2c-10.4-9.6-23.9-21.6-33-32.2c-8.6-10.1-27.1-24.2-33.3-34.7
		c-9.3-15.7,3.8-33.7,22.1-33.2c3.6,0.1,7.1,1.2,10.1,3c5.9,3.7,38.7,37.4,46.2,44.6c15.2-15.2,30.3-30.4,45.3-45.8
		c10.5-10.7,27.3-32.4,42.7-31.5c28,1.6,54.1,15.5,73.8,35.2C519.3,413.6,532.9,446.4,532.8,480.6z"/>
	<path class="st2" d="M664.3,299.8c0.1,0,0.2,0,0.4-0.1c34.3-0.6,68.9-0.4,103.2,0.1c7.3,0.1,8.3,6.5,8.3,12c0,6,1.4,15.3-2.9,20.1
		c-2,1.1-4.6,2.1-6.8,2.1c-29.2,0.1-58.8-0.7-87.9-0.3c-18.7,0.1-33,9.3-31.6,29.7c1.6,23.5,35,22.7,51.9,24.4
		c24.9,2.3,55.5,1.4,75.4,18.8c22.2,19.4,22.9,63.8,2.8,85c-14.5,15.4-30.6,18.2-50.7,19.4l-71.7,0c-11.2,0-22.6,0.3-33.7,0.1
		c-13.9-0.3-10-12.9-10.3-22.1c0-1.8,0.1-8.6,1.9-9.5c7.6-4.2,26.4-2.5,35-2.5l54.6,0.2c13.3,0,41.5,1.6,47.2-10.4
		c17.9-37.4-12.4-43.9-38.9-45c-26.6-2-57.7-1-80-17.5c-24.5-18-26.1-60.7-8-83.2C633.5,307.3,647.3,301.8,664.3,299.8z"/>
	<path class="st2" d="M846.7,366c28.7-1.8,60.4,0.8,88.8,0c19.9-0.5,46.6,14.5,48.8,34.4c1.5,14.3,3.9,101.2-1.2,108.9
		c-5.5,2.3-20.6,2.4-26.8,1.2c-1-0.2-3.4-4.1-6-3.9c-5.6,0.5-17.4,4.1-22.4,4.2c-18.8,0.3-43.6,1.4-62-0.9
		c-38.5-9.4-45.1-52.7-20.7-76.1c16.9-16.2,84.5-11,106.9-8.1c0.1-4.7,0.5-9.7,0-14.3c-0.7-5.6-3-9.9-8-12.8
		c-19.2-11.1-90.7,1-98.9-6.1c-1.2-1-1.5-3-1.6-4.5C843.3,380.9,841.8,371.5,846.7,366z M928.8,482.1c22.2-2.1,25.7-1.4,23.3-26.8
		c-0.1-1.4-0.7-2.5-1.7-3.5c-7.8-3.5-47.7-2.2-59.3-2.2c-13.2,1.1-26.9,3.3-26,19.5C866.1,487.4,918.1,482.2,928.8,482.1z"/>
	<path class="st2" d="M1281.8,366.2c20.4-1,41-0.3,61.3-0.3c8.2,0,17.1-1.1,25.1-0.5c1.9,0.1,3.8,0.7,5.3,1.8
		c2.9,2.1,4.1,5.7,4.6,9.1c0.6,4.3,0.6,12.4-2.4,15.9c-3,3.6-67,1.6-76.3,2.1c-6.3,0.3-14.8,1.2-19.1,6.3c-2,2.3-2.2,5.9-1.9,8.8
		c2.6,24.7,70.2,4.2,95.5,25.2c8.3,6.9,12.6,17.3,13.4,27.9c0.9,12-1.9,24-9.8,33.2c-8.9,10.3-20.4,13.9-33.6,15
		c-11.7,1.8-43.6-0.5-57.3,0.3c-9.6-0.1-21.1,0.1-30.4,0.3c-16.2,0.5-10.8-28.6-5.4-29c30-2.4,61.3,1.4,91.3-1.2
		c3.1-0.3,7.9-2.7,9.5-5.7c13.4-34.8-43.5-21.9-60.9-25.1c-13.3-2.5-17.7-1.4-28.4-7.9c-7.4-4.6-14.1-12.1-15.6-21.1
		C1241.5,390.7,1253,372.8,1281.8,366.2z"/>
	
		<linearGradient id="SVGID_00000072975993283220785540000011060802511885552788_" gradientUnits="userSpaceOnUse" x1="1709.1661" y1="366.5229" x2="1545.8633" y2="373.5352" gradientTransform="matrix(1 0 0 -1 0 831.89)">
		<stop  offset="0" style="stop-color:#00EDD0"/>
		<stop  offset="1" style="stop-color:#01CEE4"/>
	</linearGradient>
	<path style="fill:url(#SVGID_00000072975993283220785540000011060802511885552788_);" d="M1549.7,367c5.7-0.1,31-1.9,33.6,2.8
		c18,32.9,32.3,68.7,50.3,101.6c17.1-31.7,30.8-70.6,49-102.1c2.1-3.7,28.1-3.8,32.6,0.3c1.2,4.8-33.9,76-39.1,86.8l-24.5,52.4
		c-17.8,37.9-23.4,54.7-70.8,48.9c-8.3-1-6.5-18-5.8-24c0.8-7.2,20.4-1.2,24.8-4.9c10.5-5.3,11.9-11,16.4-21.1
		c-6.4-10.8-13.8-26.2-19.5-37.7l-30.2-60.8c-5.7-11.5-12.5-24.7-18.2-36.4C1547.2,370.9,1548.7,368.9,1549.7,367z"/>
	<path class="st2" d="M1526.8,326.3c-2.5,4.2-3.3,4.8-8.4,4.3c-36.1-2.5-47-4.8-46.2,35c13.8,1,29.4-1.5,42.6,1.6
		c3.7,0.9,3,21.8,0.9,25.3c-4.8,2.7-35.1,1.5-43.8,1.8l0,70.4c0.1,12.6,0.3,25.2-0.1,37.8c-0.2,5.5-3,8.2-8.4,8.5
		c-6.2,0.3-18.1,1.3-23.1-2.7c-2.8-6.5-1.2-101.3-1.1-113.7c-9.3-1.1-33.8,6.8-22.1-26.6c1.2-3.3,16.4-2,21.8-2.5
		c-0.3-27.3-2.7-56.9,31.9-64.6c9.8-2.2,46.3-3.2,54.1,1.7C1528.6,307.6,1527.3,320.1,1526.8,326.3z"/>
	<path class="st2" d="M1046.2,321.8c42.4-4.3,32.2,7.1,31.7,43.8c14,0.7,30.2-1.7,43.6,1.6c4.2,1,3.5,21.8,1.4,25.3
		c-4.7,2.5-36.1,1.5-44.7,1.9l-0.1,46.4c0,7.7-0.5,18.8,0.5,26.3c3.5,25.2,32.5,8.1,44.4,16.7c2.3,2.5,1.9,5.8,2,9.2
		c0,4.5,0.6,10.7-1.4,14.5c-9.5,9.3-74.5,6.2-77.7-22c-3.4-30.4-2.1-60.6-2-91.2c-6.6-0.5-17.9,1.6-22.6-1.6
		c-5-3.4-4.7-21.4-0.6-25.4c3.8-3.8,18-2.1,23.3-2.1C1044,356.1,1042,327.5,1046.2,321.8z"/>
	<path class="st2" d="M1176.9,365.4c6.6,0.3,17.6-1,22.8,2.4c2.4,4.1,2.7,131.3,0.4,140.5c-1.8,2.1-2.3,1.7-5.4,2.7
		c-6.4,0.1-16.4,1.3-22.4-1.1c-1.5-0.6-2.4-1.3-2.9-2.8c-1.8-4.9-1.6-116.1-1.1-129.6c0.1-3.2,0.2-6.6,1.5-9.5
		C1172.1,365.8,1173.9,365.8,1176.9,365.4z"/>
	<path class="st4" d="M1175.5,301.7c4.4,0.1,18.9-0.8,21.6,1.5c7.9,6.5,9.8,33-3.5,35.7c-4.9,0.1-20.5,0.6-23.1-1.7
		C1162.7,329.7,1162.6,305.2,1175.5,301.7z"/>
	<path class="st5" d="M610.4,599.1c26.2-1,53.5,0.4,79.9-0.3c11-0.3,24.3-0.4,35.1,0.3c2,1.8,1.4,1.9,2,5.3
		c-11,0.3-113.9,0.8-116.6-1L610.4,599.1z"/>
	<path class="st6" d="M1589.5,599.1c18.3-0.8,41.5,0,60.2-0.2c16.1-0.1,39.9-0.7,55.1,0.4c1.4,1.6,1.2,2.8,1.5,5.2
		c-32.6,0.4-81.5,0.1-115.1-0.2c-0.5-0.4-1-0.8-1.4-1.1L1589.5,599.1z"/>
	<g>
		<path class="st2" d="M783.8,616.7v-26.5h9.6c2,0,3.7,0.4,5.1,1.1c1.4,0.7,2.4,1.7,3.1,3c0.7,1.3,1,2.8,1,4.4
			c0,1.7-0.4,3.1-1.1,4.4c-0.7,1.3-1.7,2.3-3.1,3c-1.4,0.7-3.1,1.1-5.1,1.1h-6.7v-3.5h6.4c1.3,0,2.3-0.2,3.1-0.7
			c0.8-0.4,1.4-1,1.8-1.8c0.4-0.8,0.6-1.7,0.6-2.7s-0.2-1.9-0.6-2.6c-0.4-0.8-1-1.4-1.8-1.8c-0.8-0.4-1.9-0.6-3.1-0.6h-5.1v23.1
			H783.8z"/>
		<path class="st2" d="M823.5,616.7v-26.5h17v3.5h-12.9v7.9h12v3.5h-12v8.2h13v3.5H823.5z"/>
		<path class="st2" d="M870.8,617.2c-2,0-3.7-0.3-5.2-1c-1.5-0.6-2.6-1.6-3.5-2.8c-0.8-1.2-1.3-2.6-1.3-4.3h4c0.1,1,0.4,1.8,0.9,2.5
			s1.2,1.2,2.1,1.5c0.9,0.3,1.9,0.5,2.9,0.5c1.1,0,2.2-0.2,3-0.5c0.9-0.4,1.6-0.9,2.1-1.5c0.5-0.6,0.8-1.4,0.8-2.2
			c0-0.8-0.2-1.4-0.6-1.9c-0.4-0.5-1-0.9-1.8-1.2c-0.8-0.3-1.6-0.6-2.6-0.9l-3.1-0.8c-2.3-0.6-4-1.5-5.2-2.6
			c-1.2-1.1-1.8-2.6-1.8-4.5c0-1.5,0.4-2.9,1.2-4c0.8-1.2,1.9-2,3.3-2.7c1.4-0.6,3-1,4.8-1c1.8,0,3.5,0.3,4.8,1
			c1.4,0.6,2.5,1.5,3.3,2.7c0.8,1.1,1.2,2.4,1.2,3.9h-3.9c-0.1-1.3-0.7-2.3-1.7-3c-1-0.7-2.3-1.1-3.8-1.1c-1.1,0-2,0.2-2.8,0.5
			c-0.8,0.3-1.4,0.8-1.9,1.4c-0.4,0.6-0.7,1.3-0.7,2c0,0.8,0.2,1.4,0.7,2c0.5,0.5,1.1,0.9,1.8,1.2c0.7,0.3,1.5,0.6,2.3,0.8l2.6,0.7
			c0.9,0.2,1.9,0.5,2.8,0.9c0.9,0.4,1.7,0.9,2.5,1.4c0.7,0.6,1.3,1.3,1.8,2.1c0.4,0.8,0.7,1.8,0.7,3c0,1.5-0.4,2.9-1.2,4
			c-0.8,1.2-1.9,2.1-3.4,2.8C874.6,616.8,872.8,617.2,870.8,617.2z"/>
		<path class="st2" d="M912.7,617.1c-2.3,0-4.4-0.6-6.2-1.7c-1.8-1.1-3.2-2.7-4.3-4.7c-1-2-1.6-4.5-1.6-7.3c0-2.8,0.5-5.2,1.6-7.3
			c1-2,2.5-3.6,4.3-4.7c1.8-1.1,3.9-1.7,6.2-1.7c2.3,0,4.4,0.6,6.2,1.7c1.8,1.1,3.2,2.7,4.3,4.7c1,2,1.6,4.5,1.6,7.3
			c0,2.8-0.5,5.2-1.6,7.3c-1,2-2.5,3.6-4.3,4.7C917.1,616.6,915,617.1,912.7,617.1z M912.7,613.4c1.5,0,2.9-0.4,4.1-1.1
			c1.2-0.8,2.2-1.9,2.9-3.4c0.7-1.5,1.1-3.3,1.1-5.4c0-2.2-0.4-4-1.1-5.5c-0.7-1.5-1.7-2.6-2.9-3.4c-1.2-0.8-2.6-1.1-4.1-1.1
			c-1.5,0-2.9,0.4-4.1,1.1c-1.2,0.8-2.2,1.9-2.9,3.4c-0.7,1.5-1.1,3.3-1.1,5.4c0,2.1,0.4,3.9,1.1,5.4c0.7,1.5,1.7,2.6,2.9,3.4
			C909.8,613,911.2,613.4,912.7,613.4z M911.3,608.2h3.9l2.8,3.6l1.2,1.5l4.4,5.8h-4l-2.9-3.8l-1-1.4L911.3,608.2z"/>
		<path class="st2" d="M956.4,617.2c-2.1,0-4-0.4-5.6-1.2s-2.8-1.9-3.7-3.4c-0.9-1.4-1.3-3.1-1.3-4.9v-17.4h4v17.1
			c0,1.2,0.3,2.3,0.8,3.2c0.5,0.9,1.3,1.7,2.3,2.2c1,0.5,2.1,0.8,3.5,0.8c1.3,0,2.5-0.3,3.5-0.8s1.7-1.3,2.2-2.2s0.8-2,0.8-3.2
			v-17.1h4v17.4c0,1.9-0.4,3.5-1.3,4.9c-0.9,1.4-2.1,2.6-3.7,3.4S958.5,617.2,956.4,617.2z"/>
		<path class="st2" d="M993,590.2v26.5H989v-26.5H993z"/>
		<path class="st2" d="M1024.1,617.2c-2,0-3.7-0.3-5.2-1c-1.5-0.6-2.6-1.6-3.5-2.8c-0.8-1.2-1.3-2.6-1.3-4.3h4
			c0.1,1,0.4,1.8,0.9,2.5c0.5,0.7,1.2,1.2,2.1,1.5c0.9,0.3,1.9,0.5,2.9,0.5c1.1,0,2.2-0.2,3-0.5c0.9-0.4,1.6-0.9,2.1-1.5
			c0.5-0.6,0.8-1.4,0.8-2.2c0-0.8-0.2-1.4-0.6-1.9c-0.4-0.5-1-0.9-1.8-1.2s-1.6-0.6-2.6-0.9l-3.1-0.8c-2.3-0.6-4-1.5-5.2-2.6
			c-1.2-1.1-1.8-2.6-1.8-4.5c0-1.5,0.4-2.9,1.2-4c0.8-1.2,1.9-2,3.3-2.7c1.4-0.6,3-1,4.8-1c1.8,0,3.5,0.3,4.8,1
			c1.4,0.6,2.5,1.5,3.3,2.7c0.8,1.1,1.2,2.4,1.2,3.9h-3.9c-0.1-1.3-0.7-2.3-1.7-3c-1-0.7-2.3-1.1-3.8-1.1c-1.1,0-2,0.2-2.8,0.5
			c-0.8,0.3-1.4,0.8-1.9,1.4c-0.4,0.6-0.7,1.3-0.7,2c0,0.8,0.2,1.4,0.7,2c0.5,0.5,1.1,0.9,1.8,1.2c0.7,0.3,1.5,0.6,2.3,0.8l2.6,0.7
			c0.9,0.2,1.9,0.5,2.8,0.9c0.9,0.4,1.7,0.9,2.5,1.4c0.7,0.6,1.3,1.3,1.8,2.1c0.4,0.8,0.7,1.8,0.7,3c0,1.5-0.4,2.9-1.2,4
			s-1.9,2.1-3.4,2.8C1027.9,616.8,1026.1,617.2,1024.1,617.2z"/>
		<path class="st2" d="M1052.7,616.7l9.5-26.5h4.9l9.6,26.5h-4.4l-5.2-14.8c-0.4-1.2-0.8-2.6-1.3-4.2c-0.5-1.6-1-3.5-1.7-5.8h0.9
			c-0.6,2.3-1.2,4.2-1.7,5.8c-0.5,1.6-0.9,3-1.3,4.2l-5.1,14.8H1052.7z M1057.9,609.8v-3.4h13.7v3.4H1057.9z"/>
		<path class="st2" d="M1122.6,616.7v-26.5h17v3.5h-12.9v7.9h12v3.5h-12v8.2h13v3.5H1122.6z"/>
		<path class="st2" d="M1195.8,617.2c-2,0-3.7-0.3-5.2-1c-1.5-0.6-2.6-1.6-3.5-2.8c-0.8-1.2-1.3-2.6-1.3-4.3h4
			c0.1,1,0.4,1.8,0.9,2.5s1.2,1.2,2.1,1.5c0.9,0.3,1.9,0.5,2.9,0.5c1.1,0,2.2-0.2,3-0.5c0.9-0.4,1.6-0.9,2.1-1.5
			c0.5-0.6,0.8-1.4,0.8-2.2c0-0.8-0.2-1.4-0.6-1.9c-0.4-0.5-1-0.9-1.8-1.2c-0.8-0.3-1.6-0.6-2.6-0.9l-3.1-0.8
			c-2.3-0.6-4-1.5-5.2-2.6c-1.2-1.1-1.8-2.6-1.8-4.5c0-1.5,0.4-2.9,1.2-4c0.8-1.2,1.9-2,3.3-2.7c1.4-0.6,3-1,4.8-1
			c1.8,0,3.5,0.3,4.8,1c1.4,0.6,2.5,1.5,3.3,2.7c0.8,1.1,1.2,2.4,1.2,3.9h-3.9c-0.1-1.3-0.7-2.3-1.7-3c-1-0.7-2.3-1.1-3.8-1.1
			c-1.1,0-2,0.2-2.8,0.5c-0.8,0.3-1.4,0.8-1.9,1.4c-0.4,0.6-0.7,1.3-0.7,2c0,0.8,0.2,1.4,0.7,2c0.5,0.5,1.1,0.9,1.8,1.2
			c0.7,0.3,1.5,0.6,2.3,0.8l2.6,0.7c0.9,0.2,1.9,0.5,2.8,0.9c0.9,0.4,1.7,0.9,2.5,1.4c0.7,0.6,1.3,1.3,1.8,2.1
			c0.4,0.8,0.7,1.8,0.7,3c0,1.5-0.4,2.9-1.2,4c-0.8,1.2-1.9,2.1-3.4,2.8C1199.6,616.8,1197.9,617.2,1195.8,617.2z"/>
		<path class="st2" d="M1224.4,616.7l9.5-26.5h4.9l9.6,26.5h-4.4l-5.2-14.8c-0.4-1.2-0.8-2.6-1.3-4.2c-0.5-1.6-1-3.5-1.7-5.8h0.9
			c-0.6,2.3-1.2,4.2-1.7,5.8c-0.5,1.6-0.9,3-1.3,4.2l-5.1,14.8H1224.4z M1229.6,609.8v-3.4h13.7v3.4H1229.6z"/>
		<path class="st2" d="M1263.8,593.7v-3.5h20.6v3.5h-8.3v23h-4v-23H1263.8z"/>
		<path class="st2" d="M1309.2,590.2v26.5h-4.1v-26.5H1309.2z"/>
		<path class="st2" d="M1340.2,617.2c-2,0-3.7-0.3-5.2-1c-1.5-0.6-2.6-1.6-3.5-2.8c-0.8-1.2-1.3-2.6-1.3-4.3h4
			c0.1,1,0.4,1.8,0.9,2.5s1.2,1.2,2.1,1.5c0.9,0.3,1.9,0.5,2.9,0.5c1.1,0,2.2-0.2,3-0.5c0.9-0.4,1.6-0.9,2.1-1.5
			c0.5-0.6,0.8-1.4,0.8-2.2c0-0.8-0.2-1.4-0.6-1.9c-0.4-0.5-1-0.9-1.8-1.2c-0.8-0.3-1.6-0.6-2.6-0.9l-3.1-0.8
			c-2.3-0.6-4-1.5-5.2-2.6c-1.2-1.1-1.8-2.6-1.8-4.5c0-1.5,0.4-2.9,1.2-4c0.8-1.2,1.9-2,3.3-2.7c1.4-0.6,3-1,4.8-1
			c1.8,0,3.5,0.3,4.8,1c1.4,0.6,2.5,1.5,3.3,2.7c0.8,1.1,1.2,2.4,1.2,3.9h-3.9c-0.1-1.3-0.7-2.3-1.7-3c-1-0.7-2.3-1.1-3.8-1.1
			c-1.1,0-2,0.2-2.8,0.5c-0.8,0.3-1.4,0.8-1.9,1.4c-0.4,0.6-0.7,1.3-0.7,2c0,0.8,0.2,1.4,0.7,2c0.5,0.5,1.1,0.9,1.8,1.2
			c0.7,0.3,1.5,0.6,2.3,0.8l2.6,0.7c0.9,0.2,1.9,0.5,2.8,0.9c0.9,0.4,1.7,0.9,2.5,1.4c0.7,0.6,1.3,1.3,1.8,2.1
			c0.4,0.8,0.7,1.8,0.7,3c0,1.5-0.4,2.9-1.2,4c-0.8,1.2-1.9,2.1-3.4,2.8C1344.1,616.8,1342.3,617.2,1340.2,617.2z"/>
		<path class="st2" d="M1371.1,616.7v-26.5h16.7v3.5h-12.6v8.4h11.5v3.5h-11.5v11.2H1371.1z"/>
		<path class="st2" d="M1403.4,616.7l9.5-26.5h4.9l9.6,26.5h-4.4l-5.2-14.8c-0.4-1.2-0.8-2.6-1.3-4.2c-0.5-1.6-1-3.5-1.7-5.8h0.9
			c-0.6,2.3-1.2,4.2-1.7,5.8c-0.5,1.6-0.9,3-1.3,4.2l-5.1,14.8H1403.4z M1408.6,609.8v-3.4h13.7v3.4H1408.6z"/>
		<path class="st2" d="M1457.2,617.1c-2.3,0-4.4-0.6-6.2-1.7s-3.2-2.7-4.3-4.7c-1-2-1.5-4.5-1.5-7.3c0-2.8,0.5-5.2,1.6-7.3
			c1-2,2.5-3.6,4.3-4.7s3.9-1.7,6.2-1.7c1.4,0,2.7,0.2,4,0.6c1.2,0.4,2.3,1,3.3,1.8c1,0.8,1.8,1.7,2.4,2.8c0.6,1.1,1.1,2.4,1.3,3.8
			h-4.1c-0.2-0.9-0.5-1.6-0.9-2.3c-0.4-0.7-0.9-1.2-1.5-1.7c-0.6-0.5-1.3-0.8-2-1c-0.8-0.2-1.6-0.3-2.4-0.3c-1.6,0-3,0.4-4.2,1.2
			c-1.2,0.8-2.2,1.9-2.9,3.4c-0.7,1.5-1,3.3-1,5.4c0,2.1,0.3,3.9,1,5.4c0.7,1.5,1.6,2.6,2.9,3.4c1.2,0.8,2.6,1.2,4.2,1.2
			c0.8,0,1.6-0.1,2.4-0.3c0.8-0.2,1.4-0.6,2-1c0.6-0.5,1.1-1,1.5-1.7c0.4-0.7,0.7-1.4,0.9-2.3h4.1c-0.2,1.3-0.6,2.5-1.2,3.6
			c-0.6,1.1-1.4,2.1-2.4,2.9c-1,0.8-2.1,1.4-3.3,1.9S1458.7,617.1,1457.2,617.1z M1455.1,624.3v-2h2.2c0.6,0,1-0.1,1.3-0.3
			c0.3-0.2,0.4-0.5,0.4-0.9c0-0.4-0.1-0.7-0.4-0.9c-0.3-0.2-0.7-0.3-1.3-0.3h-1.5l0.6-4h1.8v0.8l0,1.5c1.1,0,2,0.3,2.5,0.8
			c0.6,0.5,0.9,1.2,0.9,2.1c0,1.1-0.3,1.8-1,2.3c-0.7,0.5-1.7,0.7-3.1,0.7H1455.1z"/>
		<path class="st2" d="M1486.4,616.7l9.5-26.5h4.9l9.6,26.5h-4.4l-5.2-14.8c-0.4-1.2-0.8-2.6-1.3-4.2c-0.5-1.6-1-3.5-1.7-5.8h0.9
			c-0.6,2.3-1.2,4.2-1.7,5.8c-0.5,1.6-0.9,3-1.3,4.2l-5.1,14.8H1486.4z M1491.6,609.8v-3.4h13.7v3.4H1491.6z M1500.8,586.9
			c-0.5,0-0.9-0.1-1.4-0.2c-0.4-0.2-0.8-0.3-1.2-0.6c-0.4-0.2-0.7-0.4-1-0.6c-0.3-0.2-0.6-0.2-0.8-0.2c-0.3,0-0.6,0.2-0.7,0.5
			c-0.2,0.3-0.3,0.7-0.3,1h-2.5c0-1.2,0.3-2.2,0.8-2.9c0.5-0.7,1.3-1.1,2.3-1.1c0.5,0,1,0.1,1.4,0.2c0.4,0.2,0.8,0.4,1.1,0.6
			c0.3,0.2,0.7,0.4,1,0.6c0.3,0.2,0.6,0.2,0.9,0.2c0.3,0,0.6-0.1,0.7-0.4c0.2-0.2,0.3-0.6,0.3-1.2h2.4c0,1.2-0.3,2.2-0.9,2.9
			C1502.5,586.5,1501.7,586.9,1500.8,586.9z"/>
		<path class="st2" d="M1540.2,617.1c-2.3,0-4.4-0.6-6.2-1.7c-1.8-1.1-3.2-2.7-4.3-4.7c-1-2-1.6-4.5-1.6-7.3c0-2.8,0.5-5.2,1.6-7.3
			c1-2,2.5-3.6,4.3-4.7c1.8-1.1,3.9-1.7,6.2-1.7c2.3,0,4.4,0.6,6.2,1.7c1.8,1.1,3.2,2.7,4.3,4.7c1,2,1.6,4.5,1.6,7.3
			c0,2.8-0.5,5.2-1.6,7.3c-1,2-2.5,3.6-4.3,4.7C1544.6,616.6,1542.5,617.1,1540.2,617.1z M1540.2,613.4c1.5,0,2.9-0.4,4.1-1.1
			c1.2-0.8,2.2-1.9,2.9-3.4c0.7-1.5,1.1-3.3,1.1-5.4c0-2.2-0.4-4-1.1-5.5c-0.7-1.5-1.7-2.6-2.9-3.4c-1.2-0.8-2.6-1.1-4.1-1.1
			c-1.5,0-2.9,0.4-4.1,1.1s-2.2,1.9-2.9,3.4c-0.7,1.5-1.1,3.3-1.1,5.4c0,2.1,0.4,3.9,1.1,5.4c0.7,1.5,1.7,2.6,2.9,3.4
			S1538.7,613.4,1540.2,613.4z"/>
	</g>
</g>
</svg>
